# xmcd CD database file
#
# Track frame offsets:
#	150
#	16504
#	28557
#	45997
#	62392
#	77502
#	96174
#	115637
#	129674
#	142514
#	157522
#	173386
#	185949
#	204944
#	216941
#	237028
#	248571
#	268469
#	284061
#	299436
#	319476
#
# Disc length: 4432 seconds
#
# Revision: 0
# Processed by: cddbd v1.5.2PL0 Copyright (c) Steve Scherf et al.
# Submitted via: CDex 1.70beta2
#
DISCID=17114e15
DTITLE=Various Artist - Country Series 05
DYEAR=1900
DGENRE=Country
TTITLE0=Carlene Carter - I Love You 'Cause I want To
TTITLE1=Alan Jackson - Little Bitty
TTITLE2=Garth Brooks - Friends in Low Places
TTITLE3=Tracy Lawrence - I See it Now
TTITLE4=Waylon Jennings - Luckenbach Texas
TTITLE5=Shania Twain - Any Man of Mine
TTITLE6=Restless Heart - I'll Still be Loving You
TTITLE7=Perfect Stranger - Fire When REady
TTITLE8=Clint Blackl - Killin' Time
TTITLE9=Reba McEntire - Take it Back
TTITLE10=John Berry - You're Love Amazes Me
TTITLE11=Patsy Cline - Crazy
TTITLE12=Lonestar - No News
TTITLE13=Marty Stuart - Hillbilly Rock
TTITLE14=Gibson Miller Band - Texas Tattoo
TTITLE15=Mel McDaniel - Stand Up
TTITLE16=Pam Tillis - Cleopatra, Queen of Denial
TTITLE17=Billy Ray Cyrus - Achy Breaky Heart
TTITLE18=Sammy Kershaw - Third Rate Romance
TTITLE19=Mary-Chapin Carpenter - Down at the Twist and Shout
TTITLE20=GeorgeStrait - The Fireman
EXTD=
EXTT0=
EXTT1=
EXTT2=
EXTT3=
EXTT4=
EXTT5=
EXTT6=
EXTT7=
EXTT8=
EXTT9=
EXTT10=
EXTT11=
EXTT12=
EXTT13=
EXTT14=
EXTT15=
EXTT16=
EXTT17=
EXTT18=
EXTT19=
EXTT20=
PLAYORDER=
